%TF.GenerationSoftware,KiCad,Pcbnew,10.0.1*%
%TF.CreationDate,2026-05-20T00:22:56+05:30*%
%TF.ProjectId,hologram,686f6c6f-6772-4616-9d2e-6b696361645f,rev?*%
%TF.SameCoordinates,Original*%
%TF.FileFunction,Soldermask,Bot*%
%TF.FilePolarity,Negative*%
%FSLAX46Y46*%
G04 Gerber Fmt 4.6, Leading zero omitted, Abs format (unit mm)*
G04 Created by KiCad (PCBNEW 10.0.1) date 2026-05-20 00:22:56*
%MOMM*%
%LPD*%
G01*
G04 APERTURE LIST*
G04 Aperture macros list*
%AMRoundRect*
0 Rectangle with rounded corners*
0 $1 Rounding radius*
0 $2 $3 $4 $5 $6 $7 $8 $9 X,Y pos of 4 corners*
0 Add a 4 corners polygon primitive as box body*
4,1,4,$2,$3,$4,$5,$6,$7,$8,$9,$2,$3,0*
0 Add four circle primitives for the rounded corners*
1,1,$1+$1,$2,$3*
1,1,$1+$1,$4,$5*
1,1,$1+$1,$6,$7*
1,1,$1+$1,$8,$9*
0 Add four rect primitives between the rounded corners*
20,1,$1+$1,$2,$3,$4,$5,0*
20,1,$1+$1,$4,$5,$6,$7,0*
20,1,$1+$1,$6,$7,$8,$9,0*
20,1,$1+$1,$8,$9,$2,$3,0*%
G04 Aperture macros list end*
%ADD10C,1.400000*%
%ADD11R,1.700000X1.700000*%
%ADD12C,1.700000*%
%ADD13C,0.650000*%
%ADD14O,2.100000X1.000000*%
%ADD15O,1.600000X1.000000*%
%ADD16RoundRect,0.062500X-0.062500X0.350000X-0.062500X-0.350000X0.062500X-0.350000X0.062500X0.350000X0*%
%ADD17RoundRect,0.062500X-0.350000X0.062500X-0.350000X-0.062500X0.350000X-0.062500X0.350000X0.062500X0*%
%ADD18R,1.230000X1.230000*%
G04 APERTURE END LIST*
D10*
%TO.C,R3*%
X172000000Y-73130000D03*
X172000000Y-80750000D03*
%TD*%
%TO.C,C1*%
X155250000Y-91250000D03*
X157750000Y-91250000D03*
%TD*%
%TO.C,C2*%
X155250000Y-94800000D03*
X157750000Y-94800000D03*
%TD*%
%TO.C,C5*%
X184250000Y-82000000D03*
X184250000Y-79500000D03*
%TD*%
%TO.C,C4*%
X180700000Y-82000000D03*
X180700000Y-79500000D03*
%TD*%
D11*
%TO.C,J6*%
X151000000Y-92500000D03*
D12*
X151000000Y-89960000D03*
X151000000Y-87420000D03*
X151000000Y-84880000D03*
X151000000Y-82340000D03*
X151000000Y-79800000D03*
X151000000Y-77260000D03*
X151000000Y-74720000D03*
%TD*%
D10*
%TO.C,R2*%
X175150000Y-73130000D03*
X175150000Y-80750000D03*
%TD*%
%TO.C,R1*%
X188750000Y-67310000D03*
X188750000Y-59690000D03*
%TD*%
%TO.C,C3*%
X188750000Y-72250000D03*
X188750000Y-69750000D03*
%TD*%
D11*
%TO.C,J3*%
X151385000Y-69100000D03*
D12*
X151385000Y-66560000D03*
X151385000Y-64020000D03*
X151385000Y-61480000D03*
X151385000Y-58940000D03*
X151385000Y-56400000D03*
%TD*%
D11*
%TO.C,J1*%
X159865000Y-80190000D03*
D12*
X159865000Y-82730000D03*
X159865000Y-85270000D03*
X159865000Y-87810000D03*
%TD*%
D13*
%TO.C,P1*%
X193850000Y-67070000D03*
X193850000Y-61290000D03*
D14*
X193320000Y-68500000D03*
D15*
X197500000Y-68500000D03*
D14*
X193320000Y-59860000D03*
D15*
X197500000Y-59860000D03*
%TD*%
D16*
%TO.C,U4*%
X157425000Y-60092500D03*
X157925000Y-60092500D03*
X158425000Y-60092500D03*
X158925000Y-60092500D03*
D17*
X159612500Y-60780000D03*
X159612500Y-61280000D03*
X159612500Y-61780000D03*
X159612500Y-62280000D03*
D16*
X158925000Y-62967500D03*
X158425000Y-62967500D03*
X157925000Y-62967500D03*
X157425000Y-62967500D03*
D17*
X156737500Y-62280000D03*
X156737500Y-61780000D03*
X156737500Y-61280000D03*
X156737500Y-60780000D03*
D18*
X158175000Y-61530000D03*
%TD*%
D11*
%TO.C,J2*%
X175750000Y-85250000D03*
D12*
X178290000Y-85250000D03*
%TD*%
D11*
%TO.C,J4*%
X157235000Y-68115000D03*
D12*
X159775000Y-68115000D03*
%TD*%
M02*
