%TF.GenerationSoftware,KiCad,Pcbnew,10.0.1*%
%TF.CreationDate,2026-05-20T00:22:56+05:30*%
%TF.ProjectId,hologram,686f6c6f-6772-4616-9d2e-6b696361645f,rev?*%
%TF.SameCoordinates,Original*%
%TF.FileFunction,Legend,Top*%
%TF.FilePolarity,Positive*%
%FSLAX46Y46*%
G04 Gerber Fmt 4.6, Leading zero omitted, Abs format (unit mm)*
G04 Created by KiCad (PCBNEW 10.0.1) date 2026-05-20 00:22:56*
%MOMM*%
%LPD*%
G01*
G04 APERTURE LIST*
%ADD10C,0.150000*%
%ADD11C,0.120000*%
G04 APERTURE END LIST*
D10*
X179738095Y-71062319D02*
X179738095Y-71871842D01*
X179738095Y-71871842D02*
X179785714Y-71967080D01*
X179785714Y-71967080D02*
X179833333Y-72014700D01*
X179833333Y-72014700D02*
X179928571Y-72062319D01*
X179928571Y-72062319D02*
X180119047Y-72062319D01*
X180119047Y-72062319D02*
X180214285Y-72014700D01*
X180214285Y-72014700D02*
X180261904Y-71967080D01*
X180261904Y-71967080D02*
X180309523Y-71871842D01*
X180309523Y-71871842D02*
X180309523Y-71062319D01*
X181309523Y-72062319D02*
X180738095Y-72062319D01*
X181023809Y-72062319D02*
X181023809Y-71062319D01*
X181023809Y-71062319D02*
X180928571Y-71205176D01*
X180928571Y-71205176D02*
X180833333Y-71300414D01*
X180833333Y-71300414D02*
X180738095Y-71348033D01*
X156333333Y-89359580D02*
X156285714Y-89407200D01*
X156285714Y-89407200D02*
X156142857Y-89454819D01*
X156142857Y-89454819D02*
X156047619Y-89454819D01*
X156047619Y-89454819D02*
X155904762Y-89407200D01*
X155904762Y-89407200D02*
X155809524Y-89311961D01*
X155809524Y-89311961D02*
X155761905Y-89216723D01*
X155761905Y-89216723D02*
X155714286Y-89026247D01*
X155714286Y-89026247D02*
X155714286Y-88883390D01*
X155714286Y-88883390D02*
X155761905Y-88692914D01*
X155761905Y-88692914D02*
X155809524Y-88597676D01*
X155809524Y-88597676D02*
X155904762Y-88502438D01*
X155904762Y-88502438D02*
X156047619Y-88454819D01*
X156047619Y-88454819D02*
X156142857Y-88454819D01*
X156142857Y-88454819D02*
X156285714Y-88502438D01*
X156285714Y-88502438D02*
X156333333Y-88550057D01*
X157285714Y-89454819D02*
X156714286Y-89454819D01*
X157000000Y-89454819D02*
X157000000Y-88454819D01*
X157000000Y-88454819D02*
X156904762Y-88597676D01*
X156904762Y-88597676D02*
X156809524Y-88692914D01*
X156809524Y-88692914D02*
X156714286Y-88740533D01*
X178809580Y-80916666D02*
X178857200Y-80964285D01*
X178857200Y-80964285D02*
X178904819Y-81107142D01*
X178904819Y-81107142D02*
X178904819Y-81202380D01*
X178904819Y-81202380D02*
X178857200Y-81345237D01*
X178857200Y-81345237D02*
X178761961Y-81440475D01*
X178761961Y-81440475D02*
X178666723Y-81488094D01*
X178666723Y-81488094D02*
X178476247Y-81535713D01*
X178476247Y-81535713D02*
X178333390Y-81535713D01*
X178333390Y-81535713D02*
X178142914Y-81488094D01*
X178142914Y-81488094D02*
X178047676Y-81440475D01*
X178047676Y-81440475D02*
X177952438Y-81345237D01*
X177952438Y-81345237D02*
X177904819Y-81202380D01*
X177904819Y-81202380D02*
X177904819Y-81107142D01*
X177904819Y-81107142D02*
X177952438Y-80964285D01*
X177952438Y-80964285D02*
X178000057Y-80916666D01*
X178238152Y-80059523D02*
X178904819Y-80059523D01*
X177857200Y-80297618D02*
X178571485Y-80535713D01*
X178571485Y-80535713D02*
X178571485Y-79916666D01*
X146281666Y-94224819D02*
X146281666Y-94939104D01*
X146281666Y-94939104D02*
X146234047Y-95081961D01*
X146234047Y-95081961D02*
X146138809Y-95177200D01*
X146138809Y-95177200D02*
X145995952Y-95224819D01*
X145995952Y-95224819D02*
X145900714Y-95224819D01*
X147186428Y-94224819D02*
X146995952Y-94224819D01*
X146995952Y-94224819D02*
X146900714Y-94272438D01*
X146900714Y-94272438D02*
X146853095Y-94320057D01*
X146853095Y-94320057D02*
X146757857Y-94462914D01*
X146757857Y-94462914D02*
X146710238Y-94653390D01*
X146710238Y-94653390D02*
X146710238Y-95034342D01*
X146710238Y-95034342D02*
X146757857Y-95129580D01*
X146757857Y-95129580D02*
X146805476Y-95177200D01*
X146805476Y-95177200D02*
X146900714Y-95224819D01*
X146900714Y-95224819D02*
X147091190Y-95224819D01*
X147091190Y-95224819D02*
X147186428Y-95177200D01*
X147186428Y-95177200D02*
X147234047Y-95129580D01*
X147234047Y-95129580D02*
X147281666Y-95034342D01*
X147281666Y-95034342D02*
X147281666Y-94796247D01*
X147281666Y-94796247D02*
X147234047Y-94701009D01*
X147234047Y-94701009D02*
X147186428Y-94653390D01*
X147186428Y-94653390D02*
X147091190Y-94605771D01*
X147091190Y-94605771D02*
X146900714Y-94605771D01*
X146900714Y-94605771D02*
X146805476Y-94653390D01*
X146805476Y-94653390D02*
X146757857Y-94701009D01*
X146757857Y-94701009D02*
X146710238Y-94796247D01*
X177524819Y-77106666D02*
X177048628Y-77439999D01*
X177524819Y-77678094D02*
X176524819Y-77678094D01*
X176524819Y-77678094D02*
X176524819Y-77297142D01*
X176524819Y-77297142D02*
X176572438Y-77201904D01*
X176572438Y-77201904D02*
X176620057Y-77154285D01*
X176620057Y-77154285D02*
X176715295Y-77106666D01*
X176715295Y-77106666D02*
X176858152Y-77106666D01*
X176858152Y-77106666D02*
X176953390Y-77154285D01*
X176953390Y-77154285D02*
X177001009Y-77201904D01*
X177001009Y-77201904D02*
X177048628Y-77297142D01*
X177048628Y-77297142D02*
X177048628Y-77678094D01*
X176620057Y-76725713D02*
X176572438Y-76678094D01*
X176572438Y-76678094D02*
X176524819Y-76582856D01*
X176524819Y-76582856D02*
X176524819Y-76344761D01*
X176524819Y-76344761D02*
X176572438Y-76249523D01*
X176572438Y-76249523D02*
X176620057Y-76201904D01*
X176620057Y-76201904D02*
X176715295Y-76154285D01*
X176715295Y-76154285D02*
X176810533Y-76154285D01*
X176810533Y-76154285D02*
X176953390Y-76201904D01*
X176953390Y-76201904D02*
X177524819Y-76773332D01*
X177524819Y-76773332D02*
X177524819Y-76154285D01*
X187284819Y-63666666D02*
X186808628Y-63999999D01*
X187284819Y-64238094D02*
X186284819Y-64238094D01*
X186284819Y-64238094D02*
X186284819Y-63857142D01*
X186284819Y-63857142D02*
X186332438Y-63761904D01*
X186332438Y-63761904D02*
X186380057Y-63714285D01*
X186380057Y-63714285D02*
X186475295Y-63666666D01*
X186475295Y-63666666D02*
X186618152Y-63666666D01*
X186618152Y-63666666D02*
X186713390Y-63714285D01*
X186713390Y-63714285D02*
X186761009Y-63761904D01*
X186761009Y-63761904D02*
X186808628Y-63857142D01*
X186808628Y-63857142D02*
X186808628Y-64238094D01*
X187284819Y-62714285D02*
X187284819Y-63285713D01*
X187284819Y-62999999D02*
X186284819Y-62999999D01*
X186284819Y-62999999D02*
X186427676Y-63095237D01*
X186427676Y-63095237D02*
X186522914Y-63190475D01*
X186522914Y-63190475D02*
X186570533Y-63285713D01*
X186859580Y-71166666D02*
X186907200Y-71214285D01*
X186907200Y-71214285D02*
X186954819Y-71357142D01*
X186954819Y-71357142D02*
X186954819Y-71452380D01*
X186954819Y-71452380D02*
X186907200Y-71595237D01*
X186907200Y-71595237D02*
X186811961Y-71690475D01*
X186811961Y-71690475D02*
X186716723Y-71738094D01*
X186716723Y-71738094D02*
X186526247Y-71785713D01*
X186526247Y-71785713D02*
X186383390Y-71785713D01*
X186383390Y-71785713D02*
X186192914Y-71738094D01*
X186192914Y-71738094D02*
X186097676Y-71690475D01*
X186097676Y-71690475D02*
X186002438Y-71595237D01*
X186002438Y-71595237D02*
X185954819Y-71452380D01*
X185954819Y-71452380D02*
X185954819Y-71357142D01*
X185954819Y-71357142D02*
X186002438Y-71214285D01*
X186002438Y-71214285D02*
X186050057Y-71166666D01*
X185954819Y-70833332D02*
X185954819Y-70214285D01*
X185954819Y-70214285D02*
X186335771Y-70547618D01*
X186335771Y-70547618D02*
X186335771Y-70404761D01*
X186335771Y-70404761D02*
X186383390Y-70309523D01*
X186383390Y-70309523D02*
X186431009Y-70261904D01*
X186431009Y-70261904D02*
X186526247Y-70214285D01*
X186526247Y-70214285D02*
X186764342Y-70214285D01*
X186764342Y-70214285D02*
X186859580Y-70261904D01*
X186859580Y-70261904D02*
X186907200Y-70309523D01*
X186907200Y-70309523D02*
X186954819Y-70404761D01*
X186954819Y-70404761D02*
X186954819Y-70690475D01*
X186954819Y-70690475D02*
X186907200Y-70785713D01*
X186907200Y-70785713D02*
X186859580Y-70833332D01*
X163204819Y-68741904D02*
X164014342Y-68741904D01*
X164014342Y-68741904D02*
X164109580Y-68694285D01*
X164109580Y-68694285D02*
X164157200Y-68646666D01*
X164157200Y-68646666D02*
X164204819Y-68551428D01*
X164204819Y-68551428D02*
X164204819Y-68360952D01*
X164204819Y-68360952D02*
X164157200Y-68265714D01*
X164157200Y-68265714D02*
X164109580Y-68218095D01*
X164109580Y-68218095D02*
X164014342Y-68170476D01*
X164014342Y-68170476D02*
X163204819Y-68170476D01*
X163300057Y-67741904D02*
X163252438Y-67694285D01*
X163252438Y-67694285D02*
X163204819Y-67599047D01*
X163204819Y-67599047D02*
X163204819Y-67360952D01*
X163204819Y-67360952D02*
X163252438Y-67265714D01*
X163252438Y-67265714D02*
X163300057Y-67218095D01*
X163300057Y-67218095D02*
X163395295Y-67170476D01*
X163395295Y-67170476D02*
X163490533Y-67170476D01*
X163490533Y-67170476D02*
X163633390Y-67218095D01*
X163633390Y-67218095D02*
X164204819Y-67789523D01*
X164204819Y-67789523D02*
X164204819Y-67170476D01*
X146666666Y-70824819D02*
X146666666Y-71539104D01*
X146666666Y-71539104D02*
X146619047Y-71681961D01*
X146619047Y-71681961D02*
X146523809Y-71777200D01*
X146523809Y-71777200D02*
X146380952Y-71824819D01*
X146380952Y-71824819D02*
X146285714Y-71824819D01*
X147047619Y-70824819D02*
X147666666Y-70824819D01*
X147666666Y-70824819D02*
X147333333Y-71205771D01*
X147333333Y-71205771D02*
X147476190Y-71205771D01*
X147476190Y-71205771D02*
X147571428Y-71253390D01*
X147571428Y-71253390D02*
X147619047Y-71301009D01*
X147619047Y-71301009D02*
X147666666Y-71396247D01*
X147666666Y-71396247D02*
X147666666Y-71634342D01*
X147666666Y-71634342D02*
X147619047Y-71729580D01*
X147619047Y-71729580D02*
X147571428Y-71777200D01*
X147571428Y-71777200D02*
X147476190Y-71824819D01*
X147476190Y-71824819D02*
X147190476Y-71824819D01*
X147190476Y-71824819D02*
X147095238Y-71777200D01*
X147095238Y-71777200D02*
X147047619Y-71729580D01*
X163916666Y-77374819D02*
X163916666Y-78089104D01*
X163916666Y-78089104D02*
X163869047Y-78231961D01*
X163869047Y-78231961D02*
X163773809Y-78327200D01*
X163773809Y-78327200D02*
X163630952Y-78374819D01*
X163630952Y-78374819D02*
X163535714Y-78374819D01*
X164916666Y-78374819D02*
X164345238Y-78374819D01*
X164630952Y-78374819D02*
X164630952Y-77374819D01*
X164630952Y-77374819D02*
X164535714Y-77517676D01*
X164535714Y-77517676D02*
X164440476Y-77612914D01*
X164440476Y-77612914D02*
X164345238Y-77660533D01*
X184350595Y-71854819D02*
X184350595Y-72664342D01*
X184350595Y-72664342D02*
X184398214Y-72759580D01*
X184398214Y-72759580D02*
X184445833Y-72807200D01*
X184445833Y-72807200D02*
X184541071Y-72854819D01*
X184541071Y-72854819D02*
X184731547Y-72854819D01*
X184731547Y-72854819D02*
X184826785Y-72807200D01*
X184826785Y-72807200D02*
X184874404Y-72759580D01*
X184874404Y-72759580D02*
X184922023Y-72664342D01*
X184922023Y-72664342D02*
X184922023Y-71854819D01*
X185302976Y-71854819D02*
X185922023Y-71854819D01*
X185922023Y-71854819D02*
X185588690Y-72235771D01*
X185588690Y-72235771D02*
X185731547Y-72235771D01*
X185731547Y-72235771D02*
X185826785Y-72283390D01*
X185826785Y-72283390D02*
X185874404Y-72331009D01*
X185874404Y-72331009D02*
X185922023Y-72426247D01*
X185922023Y-72426247D02*
X185922023Y-72664342D01*
X185922023Y-72664342D02*
X185874404Y-72759580D01*
X185874404Y-72759580D02*
X185826785Y-72807200D01*
X185826785Y-72807200D02*
X185731547Y-72854819D01*
X185731547Y-72854819D02*
X185445833Y-72854819D01*
X185445833Y-72854819D02*
X185350595Y-72807200D01*
X185350595Y-72807200D02*
X185302976Y-72759580D01*
X191259819Y-64918094D02*
X190259819Y-64918094D01*
X190259819Y-64918094D02*
X190259819Y-64537142D01*
X190259819Y-64537142D02*
X190307438Y-64441904D01*
X190307438Y-64441904D02*
X190355057Y-64394285D01*
X190355057Y-64394285D02*
X190450295Y-64346666D01*
X190450295Y-64346666D02*
X190593152Y-64346666D01*
X190593152Y-64346666D02*
X190688390Y-64394285D01*
X190688390Y-64394285D02*
X190736009Y-64441904D01*
X190736009Y-64441904D02*
X190783628Y-64537142D01*
X190783628Y-64537142D02*
X190783628Y-64918094D01*
X191259819Y-63394285D02*
X191259819Y-63965713D01*
X191259819Y-63679999D02*
X190259819Y-63679999D01*
X190259819Y-63679999D02*
X190402676Y-63775237D01*
X190402676Y-63775237D02*
X190497914Y-63870475D01*
X190497914Y-63870475D02*
X190545533Y-63965713D01*
X189781667Y-79582200D02*
X189924524Y-79629819D01*
X189924524Y-79629819D02*
X190162619Y-79629819D01*
X190162619Y-79629819D02*
X190257857Y-79582200D01*
X190257857Y-79582200D02*
X190305476Y-79534580D01*
X190305476Y-79534580D02*
X190353095Y-79439342D01*
X190353095Y-79439342D02*
X190353095Y-79344104D01*
X190353095Y-79344104D02*
X190305476Y-79248866D01*
X190305476Y-79248866D02*
X190257857Y-79201247D01*
X190257857Y-79201247D02*
X190162619Y-79153628D01*
X190162619Y-79153628D02*
X189972143Y-79106009D01*
X189972143Y-79106009D02*
X189876905Y-79058390D01*
X189876905Y-79058390D02*
X189829286Y-79010771D01*
X189829286Y-79010771D02*
X189781667Y-78915533D01*
X189781667Y-78915533D02*
X189781667Y-78820295D01*
X189781667Y-78820295D02*
X189829286Y-78725057D01*
X189829286Y-78725057D02*
X189876905Y-78677438D01*
X189876905Y-78677438D02*
X189972143Y-78629819D01*
X189972143Y-78629819D02*
X190210238Y-78629819D01*
X190210238Y-78629819D02*
X190353095Y-78677438D01*
X190686429Y-78629819D02*
X190924524Y-79629819D01*
X190924524Y-79629819D02*
X191115000Y-78915533D01*
X191115000Y-78915533D02*
X191305476Y-79629819D01*
X191305476Y-79629819D02*
X191543572Y-78629819D01*
X192448333Y-79629819D02*
X191876905Y-79629819D01*
X192162619Y-79629819D02*
X192162619Y-78629819D01*
X192162619Y-78629819D02*
X192067381Y-78772676D01*
X192067381Y-78772676D02*
X191972143Y-78867914D01*
X191972143Y-78867914D02*
X191876905Y-78915533D01*
%TO.C,R3*%
D11*
X172000000Y-74070000D02*
X172000000Y-75020000D01*
X172000000Y-79810000D02*
X172000000Y-78860000D01*
X171080000Y-75020000D02*
X172920000Y-75020000D01*
X172920000Y-78860000D01*
X171080000Y-78860000D01*
X171080000Y-75020000D01*
%TO.C,U1*%
X178890000Y-72827500D02*
X179365000Y-72827500D01*
X178890000Y-73302500D02*
X178890000Y-72827500D01*
X178890000Y-76047500D02*
X178890000Y-75572500D01*
X179365000Y-76047500D02*
X178890000Y-76047500D01*
X181635000Y-72827500D02*
X182110000Y-72827500D01*
X182110000Y-72827500D02*
X182110000Y-73302500D01*
X182110000Y-75572500D02*
X182110000Y-76047500D01*
X182110000Y-76047500D02*
X181635000Y-76047500D01*
X178360000Y-73687500D02*
X178030000Y-73927500D01*
X178030000Y-73447500D01*
X178360000Y-73687500D01*
G36*
X178360000Y-73687500D02*
G01*
X178030000Y-73927500D01*
X178030000Y-73447500D01*
X178360000Y-73687500D01*
G37*
%TO.C,C1*%
X154080000Y-90130000D02*
X158920000Y-90130000D01*
X154080000Y-92370000D02*
X154080000Y-90130000D01*
X158920000Y-90130000D02*
X158920000Y-92370000D01*
X158920000Y-92370000D02*
X154080000Y-92370000D01*
%TO.C,C2*%
X154080000Y-93680000D02*
X158920000Y-93680000D01*
X154080000Y-95920000D02*
X154080000Y-93680000D01*
X158920000Y-93680000D02*
X158920000Y-95920000D01*
X158920000Y-95920000D02*
X154080000Y-95920000D01*
%TO.C,C5*%
X183130000Y-78330000D02*
X185370000Y-78330000D01*
X183130000Y-83170000D02*
X183130000Y-78330000D01*
X185370000Y-78330000D02*
X185370000Y-83170000D01*
X185370000Y-83170000D02*
X183130000Y-83170000D01*
%TO.C,C4*%
X179580000Y-78330000D02*
X181820000Y-78330000D01*
X179580000Y-83170000D02*
X179580000Y-78330000D01*
X181820000Y-78330000D02*
X181820000Y-83170000D01*
X181820000Y-83170000D02*
X179580000Y-83170000D01*
%TO.C,J6*%
X140850000Y-74290000D02*
X146850000Y-74290000D01*
X140850000Y-75150000D02*
X140850000Y-74290000D01*
X140850000Y-76830000D02*
X146850000Y-76830000D01*
X140850000Y-77690000D02*
X140850000Y-76830000D01*
X140850000Y-79370000D02*
X146850000Y-79370000D01*
X140850000Y-80230000D02*
X140850000Y-79370000D01*
X140850000Y-81910000D02*
X146850000Y-81910000D01*
X140850000Y-82770000D02*
X140850000Y-81910000D01*
X140850000Y-84450000D02*
X146850000Y-84450000D01*
X140850000Y-85310000D02*
X140850000Y-84450000D01*
X140850000Y-86990000D02*
X146850000Y-86990000D01*
X140850000Y-87850000D02*
X140850000Y-86990000D01*
X140850000Y-89530000D02*
X146850000Y-89530000D01*
X140850000Y-90390000D02*
X140850000Y-89530000D01*
X146850000Y-75150000D02*
X140850000Y-75150000D01*
X146850000Y-77690000D02*
X140850000Y-77690000D01*
X146850000Y-80230000D02*
X140850000Y-80230000D01*
X146850000Y-82770000D02*
X140850000Y-82770000D01*
X146850000Y-85310000D02*
X140850000Y-85310000D01*
X146850000Y-87850000D02*
X140850000Y-87850000D01*
X146850000Y-90390000D02*
X140850000Y-90390000D01*
X149610000Y-75990000D02*
X146850000Y-75990000D01*
X149610000Y-78530000D02*
X146850000Y-78530000D01*
X149610000Y-81070000D02*
X146850000Y-81070000D01*
X149610000Y-83610000D02*
X146850000Y-83610000D01*
X149610000Y-86150000D02*
X146850000Y-86150000D01*
X149610000Y-88690000D02*
X146850000Y-88690000D01*
X149610000Y-91230000D02*
X146850000Y-91230000D01*
X149840000Y-92070000D02*
X149610000Y-92070000D01*
X149840000Y-92930000D02*
X149610000Y-92930000D01*
X149922642Y-74290000D02*
X149610000Y-74290000D01*
X149922642Y-75150000D02*
X149610000Y-75150000D01*
X149922642Y-76830000D02*
X149610000Y-76830000D01*
X149922642Y-77690000D02*
X149610000Y-77690000D01*
X149922642Y-79370000D02*
X149610000Y-79370000D01*
X149922642Y-80230000D02*
X149610000Y-80230000D01*
X149922642Y-81910000D02*
X149610000Y-81910000D01*
X149922642Y-82770000D02*
X149610000Y-82770000D01*
X149922642Y-84450000D02*
X149610000Y-84450000D01*
X149922642Y-85310000D02*
X149610000Y-85310000D01*
X149922642Y-86990000D02*
X149610000Y-86990000D01*
X149922642Y-87850000D02*
X149610000Y-87850000D01*
X149922642Y-89530000D02*
X149610000Y-89530000D01*
X149922642Y-90390000D02*
X149610000Y-90390000D01*
X152270000Y-92500000D02*
X152270000Y-93770000D01*
X152270000Y-93770000D02*
X151000000Y-93770000D01*
X140850000Y-92070000D02*
X146850000Y-92070000D01*
X146850000Y-92930000D01*
X140850000Y-92930000D01*
X140850000Y-92070000D01*
G36*
X140850000Y-92070000D02*
G01*
X146850000Y-92070000D01*
X146850000Y-92930000D01*
X140850000Y-92930000D01*
X140850000Y-92070000D01*
G37*
X146850000Y-73340000D02*
X149610000Y-73340000D01*
X149610000Y-93880000D01*
X146850000Y-93880000D01*
X146850000Y-73340000D01*
%TO.C,R2*%
X175150000Y-74070000D02*
X175150000Y-75020000D01*
X175150000Y-79810000D02*
X175150000Y-78860000D01*
X174230000Y-75020000D02*
X176070000Y-75020000D01*
X176070000Y-78860000D01*
X174230000Y-78860000D01*
X174230000Y-75020000D01*
%TO.C,R1*%
X188750000Y-60630000D02*
X188750000Y-61580000D01*
X188750000Y-66370000D02*
X188750000Y-65420000D01*
X187830000Y-61580000D02*
X189670000Y-61580000D01*
X189670000Y-65420000D01*
X187830000Y-65420000D01*
X187830000Y-61580000D01*
%TO.C,C3*%
X187630000Y-68580000D02*
X189870000Y-68580000D01*
X187630000Y-73420000D02*
X187630000Y-68580000D01*
X189870000Y-68580000D02*
X189870000Y-73420000D01*
X189870000Y-73420000D02*
X187630000Y-73420000D01*
%TO.C,U2*%
X165140000Y-49640000D02*
X165140000Y-55450000D01*
X165140000Y-49640000D02*
X183360000Y-49640000D01*
X165140000Y-69560000D02*
X165140000Y-69860000D01*
X165140000Y-69860000D02*
X183360000Y-69860000D01*
X183360000Y-49640000D02*
X183360000Y-56140000D01*
X183360000Y-69560000D02*
X183360000Y-69860000D01*
X165150000Y-56150000D02*
X164650000Y-56150000D01*
X165150000Y-55650000D01*
X165150000Y-56150000D01*
G36*
X165150000Y-56150000D02*
G01*
X164650000Y-56150000D01*
X165150000Y-55650000D01*
X165150000Y-56150000D01*
G37*
%TO.C,J3*%
X141235000Y-55970000D02*
X147235000Y-55970000D01*
X141235000Y-56830000D02*
X141235000Y-55970000D01*
X141235000Y-58510000D02*
X147235000Y-58510000D01*
X141235000Y-59370000D02*
X141235000Y-58510000D01*
X141235000Y-61050000D02*
X147235000Y-61050000D01*
X141235000Y-61910000D02*
X141235000Y-61050000D01*
X141235000Y-63590000D02*
X147235000Y-63590000D01*
X141235000Y-64450000D02*
X141235000Y-63590000D01*
X141235000Y-66130000D02*
X147235000Y-66130000D01*
X141235000Y-66990000D02*
X141235000Y-66130000D01*
X147235000Y-56830000D02*
X141235000Y-56830000D01*
X147235000Y-59370000D02*
X141235000Y-59370000D01*
X147235000Y-61910000D02*
X141235000Y-61910000D01*
X147235000Y-64450000D02*
X141235000Y-64450000D01*
X147235000Y-66990000D02*
X141235000Y-66990000D01*
X149995000Y-57670000D02*
X147235000Y-57670000D01*
X149995000Y-60210000D02*
X147235000Y-60210000D01*
X149995000Y-62750000D02*
X147235000Y-62750000D01*
X149995000Y-65290000D02*
X147235000Y-65290000D01*
X149995000Y-67830000D02*
X147235000Y-67830000D01*
X150225000Y-68670000D02*
X149995000Y-68670000D01*
X150225000Y-69530000D02*
X149995000Y-69530000D01*
X150307642Y-55970000D02*
X149995000Y-55970000D01*
X150307642Y-56830000D02*
X149995000Y-56830000D01*
X150307642Y-58510000D02*
X149995000Y-58510000D01*
X150307642Y-59370000D02*
X149995000Y-59370000D01*
X150307642Y-61050000D02*
X149995000Y-61050000D01*
X150307642Y-61910000D02*
X149995000Y-61910000D01*
X150307642Y-63590000D02*
X149995000Y-63590000D01*
X150307642Y-64450000D02*
X149995000Y-64450000D01*
X150307642Y-66130000D02*
X149995000Y-66130000D01*
X150307642Y-66990000D02*
X149995000Y-66990000D01*
X152655000Y-69100000D02*
X152655000Y-70370000D01*
X152655000Y-70370000D02*
X151385000Y-70370000D01*
X141235000Y-68670000D02*
X147235000Y-68670000D01*
X147235000Y-69530000D01*
X141235000Y-69530000D01*
X141235000Y-68670000D01*
G36*
X141235000Y-68670000D02*
G01*
X147235000Y-68670000D01*
X147235000Y-69530000D01*
X141235000Y-69530000D01*
X141235000Y-68670000D01*
G37*
X147235000Y-55020000D02*
X149995000Y-55020000D01*
X149995000Y-70480000D01*
X147235000Y-70480000D01*
X147235000Y-55020000D01*
%TO.C,J1*%
X158595000Y-78920000D02*
X159865000Y-78920000D01*
X158595000Y-80190000D02*
X158595000Y-78920000D01*
X160942358Y-82300000D02*
X161255000Y-82300000D01*
X160942358Y-83160000D02*
X161255000Y-83160000D01*
X160942358Y-84840000D02*
X161255000Y-84840000D01*
X160942358Y-85700000D02*
X161255000Y-85700000D01*
X160942358Y-87380000D02*
X161255000Y-87380000D01*
X160942358Y-88240000D02*
X161255000Y-88240000D01*
X161025000Y-79760000D02*
X161255000Y-79760000D01*
X161025000Y-80620000D02*
X161255000Y-80620000D01*
X161255000Y-81460000D02*
X164015000Y-81460000D01*
X161255000Y-84000000D02*
X164015000Y-84000000D01*
X161255000Y-86540000D02*
X164015000Y-86540000D01*
X164015000Y-82300000D02*
X170015000Y-82300000D01*
X164015000Y-84840000D02*
X170015000Y-84840000D01*
X164015000Y-87380000D02*
X170015000Y-87380000D01*
X170015000Y-82300000D02*
X170015000Y-83160000D01*
X170015000Y-83160000D02*
X164015000Y-83160000D01*
X170015000Y-84840000D02*
X170015000Y-85700000D01*
X170015000Y-85700000D02*
X164015000Y-85700000D01*
X170015000Y-87380000D02*
X170015000Y-88240000D01*
X170015000Y-88240000D02*
X164015000Y-88240000D01*
X161255000Y-78810000D02*
X164015000Y-78810000D01*
X164015000Y-89190000D01*
X161255000Y-89190000D01*
X161255000Y-78810000D01*
X164015000Y-79760000D02*
X170015000Y-79760000D01*
X170015000Y-80620000D01*
X164015000Y-80620000D01*
X164015000Y-79760000D01*
G36*
X164015000Y-79760000D02*
G01*
X170015000Y-79760000D01*
X170015000Y-80620000D01*
X164015000Y-80620000D01*
X164015000Y-79760000D01*
G37*
%TO.C,U3*%
X184202500Y-73240000D02*
X186022500Y-73240000D01*
X184202500Y-73290000D02*
X184202500Y-73240000D01*
X184202500Y-76360000D02*
X184202500Y-76310000D01*
X186022500Y-73240000D02*
X186022500Y-73290000D01*
X186022500Y-74410000D02*
X186022500Y-75190000D01*
X186022500Y-76310000D02*
X186022500Y-76360000D01*
X186022500Y-76360000D02*
X184202500Y-76360000D01*
X183662500Y-73290000D02*
X183422500Y-72960000D01*
X183902500Y-72960000D01*
X183662500Y-73290000D01*
G36*
X183662500Y-73290000D02*
G01*
X183422500Y-72960000D01*
X183902500Y-72960000D01*
X183662500Y-73290000D01*
G37*
%TO.C,P1*%
X194550000Y-59480000D02*
X196550000Y-59480000D01*
X194550000Y-68880000D02*
X196550000Y-68880000D01*
X198450000Y-59480000D02*
X200350000Y-59480000D01*
X198450000Y-68880000D02*
X200350000Y-68880000D01*
X200350000Y-68880000D02*
X200350000Y-59480000D01*
%TO.C,SW1*%
X189190000Y-82500000D02*
X189190000Y-87750000D01*
X189190000Y-93000000D02*
X189190000Y-91750000D01*
X189740000Y-82500000D02*
X189190000Y-82500000D01*
X189740000Y-93000000D02*
X189190000Y-93000000D01*
X199140000Y-82500000D02*
X199690000Y-82500000D01*
X199140000Y-93000000D02*
X199690000Y-93000000D01*
X199690000Y-82500000D02*
X199690000Y-83750000D01*
X199690000Y-93000000D02*
X199690000Y-91750000D01*
%TD*%
M02*
