%TF.GenerationSoftware,KiCad,Pcbnew,10.0.1*%
%TF.CreationDate,2026-05-20T00:22:56+05:30*%
%TF.ProjectId,hologram,686f6c6f-6772-4616-9d2e-6b696361645f,rev?*%
%TF.SameCoordinates,Original*%
%TF.FileFunction,Copper,L1,Top*%
%TF.FilePolarity,Positive*%
%FSLAX46Y46*%
G04 Gerber Fmt 4.6, Leading zero omitted, Abs format (unit mm)*
G04 Created by KiCad (PCBNEW 10.0.1) date 2026-05-20 00:22:56*
%MOMM*%
%LPD*%
G01*
G04 APERTURE LIST*
G04 Aperture macros list*
%AMRoundRect*
0 Rectangle with rounded corners*
0 $1 Rounding radius*
0 $2 $3 $4 $5 $6 $7 $8 $9 X,Y pos of 4 corners*
0 Add a 4 corners polygon primitive as box body*
4,1,4,$2,$3,$4,$5,$6,$7,$8,$9,$2,$3,0*
0 Add four circle primitives for the rounded corners*
1,1,$1+$1,$2,$3*
1,1,$1+$1,$4,$5*
1,1,$1+$1,$6,$7*
1,1,$1+$1,$8,$9*
0 Add four rect primitives between the rounded corners*
20,1,$1+$1,$2,$3,$4,$5,0*
20,1,$1+$1,$4,$5,$6,$7,0*
20,1,$1+$1,$6,$7,$8,$9,0*
20,1,$1+$1,$8,$9,$2,$3,0*%
G04 Aperture macros list end*
%ADD10C,0.300000*%
%TA.AperFunction,NonConductor*%
%ADD11C,0.300000*%
%TD*%
%TA.AperFunction,ComponentPad*%
%ADD12C,1.400000*%
%TD*%
%TA.AperFunction,SMDPad,CuDef*%
%ADD13RoundRect,0.062500X-0.375000X-0.062500X0.375000X-0.062500X0.375000X0.062500X-0.375000X0.062500X0*%
%TD*%
%TA.AperFunction,SMDPad,CuDef*%
%ADD14RoundRect,0.062500X-0.062500X-0.375000X0.062500X-0.375000X0.062500X0.375000X-0.062500X0.375000X0*%
%TD*%
%TA.AperFunction,HeatsinkPad*%
%ADD15R,1.600000X1.600000*%
%TD*%
%TA.AperFunction,ComponentPad*%
%ADD16R,1.700000X1.700000*%
%TD*%
%TA.AperFunction,ComponentPad*%
%ADD17C,1.700000*%
%TD*%
%TA.AperFunction,SMDPad,CuDef*%
%ADD18R,1.500000X0.900000*%
%TD*%
%TA.AperFunction,HeatsinkPad*%
%ADD19C,0.600000*%
%TD*%
%TA.AperFunction,HeatsinkPad*%
%ADD20R,2.900000X2.900000*%
%TD*%
%TA.AperFunction,SMDPad,CuDef*%
%ADD21RoundRect,0.150000X-0.512500X-0.150000X0.512500X-0.150000X0.512500X0.150000X-0.512500X0.150000X0*%
%TD*%
%TA.AperFunction,SMDPad,CuDef*%
%ADD22RoundRect,0.150000X0.575000X-0.150000X0.575000X0.150000X-0.575000X0.150000X-0.575000X-0.150000X0*%
%TD*%
%TA.AperFunction,SMDPad,CuDef*%
%ADD23RoundRect,0.075000X0.650000X-0.075000X0.650000X0.075000X-0.650000X0.075000X-0.650000X-0.075000X0*%
%TD*%
%TA.AperFunction,ComponentPad*%
%ADD24O,2.100000X1.000000*%
%TD*%
%TA.AperFunction,ComponentPad*%
%ADD25O,1.600000X1.000000*%
%TD*%
%TA.AperFunction,SMDPad,CuDef*%
%ADD26R,1.200000X2.500000*%
%TD*%
%TA.AperFunction,ViaPad*%
%ADD27C,0.300000*%
%TD*%
%TA.AperFunction,ViaPad*%
%ADD28C,0.600000*%
%TD*%
%TA.AperFunction,Conductor*%
%ADD29C,0.200000*%
%TD*%
G04 APERTURE END LIST*
D10*
D11*
X190483082Y-56872257D02*
X191197368Y-56872257D01*
X190340225Y-57300828D02*
X190840225Y-55800828D01*
X190840225Y-55800828D02*
X191340225Y-57300828D01*
X192054510Y-57300828D02*
X191911653Y-57229400D01*
X191911653Y-57229400D02*
X191840224Y-57086542D01*
X191840224Y-57086542D02*
X191840224Y-55800828D01*
X192554510Y-56872257D02*
X193268796Y-56872257D01*
X192411653Y-57300828D02*
X192911653Y-55800828D01*
X192911653Y-55800828D02*
X193411653Y-57300828D01*
X194125938Y-57300828D02*
X193983081Y-57229400D01*
X193983081Y-57229400D02*
X193911652Y-57157971D01*
X193911652Y-57157971D02*
X193840224Y-57015114D01*
X193840224Y-57015114D02*
X193840224Y-56586542D01*
X193840224Y-56586542D02*
X193911652Y-56443685D01*
X193911652Y-56443685D02*
X193983081Y-56372257D01*
X193983081Y-56372257D02*
X194125938Y-56300828D01*
X194125938Y-56300828D02*
X194340224Y-56300828D01*
X194340224Y-56300828D02*
X194483081Y-56372257D01*
X194483081Y-56372257D02*
X194554510Y-56443685D01*
X194554510Y-56443685D02*
X194625938Y-56586542D01*
X194625938Y-56586542D02*
X194625938Y-57015114D01*
X194625938Y-57015114D02*
X194554510Y-57157971D01*
X194554510Y-57157971D02*
X194483081Y-57229400D01*
X194483081Y-57229400D02*
X194340224Y-57300828D01*
X194340224Y-57300828D02*
X194125938Y-57300828D01*
X195054510Y-55800828D02*
X195911653Y-55800828D01*
X195483081Y-57300828D02*
X195483081Y-55800828D01*
X197054510Y-57300828D02*
X197054510Y-56515114D01*
X197054510Y-56515114D02*
X196983081Y-56372257D01*
X196983081Y-56372257D02*
X196840224Y-56300828D01*
X196840224Y-56300828D02*
X196554510Y-56300828D01*
X196554510Y-56300828D02*
X196411652Y-56372257D01*
X197054510Y-57229400D02*
X196911652Y-57300828D01*
X196911652Y-57300828D02*
X196554510Y-57300828D01*
X196554510Y-57300828D02*
X196411652Y-57229400D01*
X196411652Y-57229400D02*
X196340224Y-57086542D01*
X196340224Y-57086542D02*
X196340224Y-56943685D01*
X196340224Y-56943685D02*
X196411652Y-56800828D01*
X196411652Y-56800828D02*
X196554510Y-56729400D01*
X196554510Y-56729400D02*
X196911652Y-56729400D01*
X196911652Y-56729400D02*
X197054510Y-56657971D01*
X198411653Y-57229400D02*
X198268795Y-57300828D01*
X198268795Y-57300828D02*
X197983081Y-57300828D01*
X197983081Y-57300828D02*
X197840224Y-57229400D01*
X197840224Y-57229400D02*
X197768795Y-57157971D01*
X197768795Y-57157971D02*
X197697367Y-57015114D01*
X197697367Y-57015114D02*
X197697367Y-56586542D01*
X197697367Y-56586542D02*
X197768795Y-56443685D01*
X197768795Y-56443685D02*
X197840224Y-56372257D01*
X197840224Y-56372257D02*
X197983081Y-56300828D01*
X197983081Y-56300828D02*
X198268795Y-56300828D01*
X198268795Y-56300828D02*
X198411653Y-56372257D01*
X199054509Y-57300828D02*
X199054509Y-55800828D01*
X199697367Y-57300828D02*
X199697367Y-56515114D01*
X199697367Y-56515114D02*
X199625938Y-56372257D01*
X199625938Y-56372257D02*
X199483081Y-56300828D01*
X199483081Y-56300828D02*
X199268795Y-56300828D01*
X199268795Y-56300828D02*
X199125938Y-56372257D01*
X199125938Y-56372257D02*
X199054509Y-56443685D01*
D12*
%TO.P,R3,1*%
%TO.N,Net-(U1-TS)*%
X172000000Y-73130000D03*
%TO.P,R3,2*%
%TO.N,GND*%
X172000000Y-80750000D03*
%TD*%
D13*
%TO.P,U1,1,TS_1*%
%TO.N,Net-(U1-TS)*%
X179062500Y-73687500D03*
%TO.P,U1,2,BAT_2*%
%TO.N,Net-(J2-Pin_1)*%
X179062500Y-74187500D03*
%TO.P,U1,3,BAT_3*%
X179062500Y-74687500D03*
%TO.P,U1,4,~{CE}_4*%
%TO.N,GND*%
X179062500Y-75187500D03*
D14*
%TO.P,U1,5,EN2_5*%
X179750000Y-75875000D03*
%TO.P,U1,6,EN1_6*%
X180250000Y-75875000D03*
%TO.P,U1,7,~{PGOOD}_7*%
%TO.N,unconnected-(U1-~{PGOOD}-Pad7)*%
X180750000Y-75875000D03*
%TO.P,U1,8,VSS_8*%
%TO.N,unconnected-(U1-VSS-Pad17)*%
X181250000Y-75875000D03*
D13*
%TO.P,U1,9,~{CHG}_9*%
%TO.N,unconnected-(U1-~{CHG}-Pad9)*%
X181937500Y-75187500D03*
%TO.P,U1,10,OUT_10*%
%TO.N,Net-(U3-VIN)*%
X181937500Y-74687500D03*
%TO.P,U1,11,OUT_11*%
X181937500Y-74187500D03*
%TO.P,U1,12,ILIM_12*%
%TO.N,Net-(U1-ILIM)*%
X181937500Y-73687500D03*
D14*
%TO.P,U1,13,IN_13*%
%TO.N,Net-(U1-IN)*%
X181250000Y-73000000D03*
%TO.P,U1,14,TMR_14*%
%TO.N,GND*%
X180750000Y-73000000D03*
%TO.P,U1,15,ITERM_15*%
%TO.N,unconnected-(U1-ITERM-Pad15)*%
X180250000Y-73000000D03*
%TO.P,U1,16,ISET_16*%
%TO.N,Net-(U1-ILIM)*%
X179750000Y-73000000D03*
D15*
%TO.P,U1,17,VSS_17*%
%TO.N,unconnected-(U1-VSS-Pad17)_1*%
X180500000Y-74437500D03*
%TD*%
D12*
%TO.P,C1,1*%
%TO.N,3.3volt*%
X155250000Y-91250000D03*
%TO.P,C1,2*%
%TO.N,GND*%
X157750000Y-91250000D03*
%TD*%
%TO.P,C2,1*%
%TO.N,3.3volt*%
X155250000Y-94800000D03*
%TO.P,C2,2*%
%TO.N,GND*%
X157750000Y-94800000D03*
%TD*%
%TO.P,C5,1*%
%TO.N,GND*%
X184250000Y-82000000D03*
%TO.P,C5,2*%
%TO.N,3.3volt*%
X184250000Y-79500000D03*
%TD*%
%TO.P,C4,1*%
%TO.N,GND*%
X180700000Y-82000000D03*
%TO.P,C4,2*%
%TO.N,Net-(U3-VIN)*%
X180700000Y-79500000D03*
%TD*%
D16*
%TO.P,J6,1,Pin_1_1*%
%TO.N,3.3volt*%
X151000000Y-92500000D03*
D17*
%TO.P,J6,2,Pin_2_2*%
%TO.N,GND*%
X151000000Y-89960000D03*
%TO.P,J6,3,Pin_3_3*%
%TO.N,/scl*%
X151000000Y-87420000D03*
%TO.P,J6,4,Pin_4_4*%
%TO.N,/sda*%
X151000000Y-84880000D03*
%TO.P,J6,5,Pin_5_5*%
%TO.N,unconnected-(J6-Pin_5-Pad5)*%
X151000000Y-82340000D03*
%TO.P,J6,6,Pin_6_6*%
%TO.N,unconnected-(J6-Pin_6-Pad6)*%
X151000000Y-79800000D03*
%TO.P,J6,7,Pin_7_7*%
%TO.N,GND*%
X151000000Y-77260000D03*
%TO.P,J6,8,Pin_8_8*%
%TO.N,/INT*%
X151000000Y-74720000D03*
%TD*%
D12*
%TO.P,R2,1*%
%TO.N,Net-(U1-ILIM)*%
X175150000Y-73130000D03*
%TO.P,R2,2*%
%TO.N,GND*%
X175150000Y-80750000D03*
%TD*%
%TO.P,R1,1*%
%TO.N,Net-(P1-CC)*%
X188750000Y-67310000D03*
%TO.P,R1,2*%
%TO.N,GND*%
X188750000Y-59690000D03*
%TD*%
%TO.P,C3,1*%
%TO.N,GND*%
X188750000Y-72250000D03*
%TO.P,C3,2*%
%TO.N,Net-(U1-IN)*%
X188750000Y-69750000D03*
%TD*%
D18*
%TO.P,U2,1,3V3_1*%
%TO.N,3.3volt*%
X165500000Y-56850000D03*
%TO.P,U2,2,EN_2*%
%TO.N,unconnected-(U2-EN-Pad2)*%
X165500000Y-58350000D03*
%TO.P,U2,3,IO4_3*%
%TO.N,/SCK*%
X165500000Y-59850000D03*
%TO.P,U2,4,IO5_4*%
%TO.N,/SD*%
X165500000Y-61350000D03*
%TO.P,U2,5,IO6_5*%
%TO.N,/DIN*%
X165500000Y-62850000D03*
%TO.P,U2,6,IO7_6*%
%TO.N,Net-(SW1-A)*%
X165500000Y-64350000D03*
%TO.P,U2,7,IO8_7*%
%TO.N,/sda*%
X165500000Y-65850000D03*
%TO.P,U2,8,IO9_8*%
%TO.N,/scl*%
X165500000Y-67350000D03*
%TO.P,U2,9,GND_9*%
%TO.N,GND*%
X165500000Y-68850000D03*
%TO.P,U2,10,IO10_10*%
%TO.N,unconnected-(U2-IO10-Pad10)*%
X183000000Y-68850000D03*
%TO.P,U2,11,IO20/RXD_11*%
%TO.N,unconnected-(U2-IO20{slash}RXD-Pad11)*%
X183000000Y-67350000D03*
%TO.P,U2,12,IO21/TXD_12*%
%TO.N,unconnected-(U2-IO21{slash}TXD-Pad12)*%
X183000000Y-65850000D03*
%TO.P,U2,13,IO18_13*%
%TO.N,/USB_D-*%
X183000000Y-64350000D03*
%TO.P,U2,14,IO19_14*%
%TO.N,/USB_D+*%
X183000000Y-62850000D03*
%TO.P,U2,15,IO3_15*%
%TO.N,/INT*%
X183000000Y-61350000D03*
%TO.P,U2,16,IO2_16*%
%TO.N,/WS*%
X183000000Y-59850000D03*
%TO.P,U2,17,IO1_17*%
%TO.N,unconnected-(U2-IO1-Pad17)*%
X183000000Y-58350000D03*
%TO.P,U2,18,IO0_18*%
%TO.N,unconnected-(U2-IO0-Pad18)*%
X183000000Y-56850000D03*
D19*
%TO.P,U2,19,GND_19*%
%TO.N,GND*%
X174110000Y-62500000D03*
X174110000Y-63600000D03*
X174660000Y-61950000D03*
X174660000Y-63050000D03*
X174660000Y-64150000D03*
X175210000Y-62500000D03*
D20*
X175210000Y-63050000D03*
D19*
X175210000Y-63600000D03*
X175760000Y-61950000D03*
X175760000Y-63050000D03*
X175760000Y-64150000D03*
X176310000Y-62500000D03*
X176310000Y-63600000D03*
%TD*%
D16*
%TO.P,J3,1,Pin_1_1*%
%TO.N,GND*%
X151385000Y-69100000D03*
D17*
%TO.P,J3,2,Pin_2_2*%
%TO.N,3.3volt*%
X151385000Y-66560000D03*
%TO.P,J3,3,Pin_3_3*%
%TO.N,/SD*%
X151385000Y-64020000D03*
%TO.P,J3,4,Pin_4_4*%
%TO.N,/SCK*%
X151385000Y-61480000D03*
%TO.P,J3,5,Pin_5_5*%
%TO.N,/WS*%
X151385000Y-58940000D03*
%TO.P,J3,6,Pin_6_6*%
%TO.N,GND*%
X151385000Y-56400000D03*
%TD*%
D16*
%TO.P,J1,1,Pin_1_1*%
%TO.N,3.3volt*%
X159865000Y-80190000D03*
D17*
%TO.P,J1,2,Pin_2_2*%
%TO.N,GND*%
X159865000Y-82730000D03*
%TO.P,J1,3,Pin_3_3*%
%TO.N,/scl*%
X159865000Y-85270000D03*
%TO.P,J1,4,Pin_4_4*%
%TO.N,/sda*%
X159865000Y-87810000D03*
%TD*%
D21*
%TO.P,U3,1,VIN_1*%
%TO.N,Net-(U3-VIN)*%
X183975000Y-73850000D03*
%TO.P,U3,2,GND_2*%
%TO.N,GND*%
X183975000Y-74800000D03*
%TO.P,U3,3,EN_3*%
%TO.N,3.3volt*%
X183975000Y-75750000D03*
%TO.P,U3,4,NC_4*%
%TO.N,unconnected-(U3-NC-Pad4)*%
X186250000Y-75750000D03*
%TO.P,U3,5,VOUT_5*%
%TO.N,3.3volt*%
X186250000Y-73850000D03*
%TD*%
D22*
%TO.P,P1,A1,GND_A1*%
%TO.N,GND*%
X192405000Y-67430000D03*
%TO.P,P1,A4,VBUS_A4*%
%TO.N,Net-(U1-IN)*%
X192405000Y-66630000D03*
D23*
%TO.P,P1,A5,CC_A5*%
%TO.N,Net-(P1-CC)*%
X192405000Y-65430000D03*
%TO.P,P1,A6,D+_A6*%
%TO.N,/USB_D+*%
X192405000Y-64430000D03*
%TO.P,P1,A7,D-_A7*%
%TO.N,/USB_D-*%
X192405000Y-63930000D03*
%TO.P,P1,A8*%
%TO.N,N/C*%
X192405000Y-62930000D03*
D22*
%TO.P,P1,A9,VBUS_A9*%
%TO.N,Net-(U1-IN)*%
X192405000Y-61730000D03*
%TO.P,P1,A12,GND_A12*%
%TO.N,GND*%
X192405000Y-60930000D03*
%TO.P,P1,B1,GND_B1*%
X192405000Y-60930000D03*
%TO.P,P1,B4,VBUS_B4*%
%TO.N,Net-(U1-IN)*%
X192405000Y-61730000D03*
D23*
%TO.P,P1,B5,VCONN_B5*%
%TO.N,unconnected-(P1-VCONN-PadB5)*%
X192405000Y-62430000D03*
%TO.P,P1,B6*%
%TO.N,N/C*%
X192405000Y-63430000D03*
%TO.P,P1,B7*%
X192405000Y-64930000D03*
%TO.P,P1,B8*%
X192405000Y-65930000D03*
D22*
%TO.P,P1,B9,VBUS_B9*%
%TO.N,Net-(U1-IN)*%
X192405000Y-66630000D03*
%TO.P,P1,B12,GND_B12*%
%TO.N,GND*%
X192405000Y-67430000D03*
D24*
%TO.P,P1,SH,SHIELD_SH*%
X193320000Y-68500000D03*
D25*
X197500000Y-68500000D03*
D24*
X193320000Y-59860000D03*
D25*
X197500000Y-59860000D03*
%TD*%
D26*
%TO.P,SW1,1,1_1*%
%TO.N,unconnected-(SW1-Pad1)*%
X190630000Y-81500000D03*
%TO.P,SW1,2,2_2*%
%TO.N,GND*%
X190630000Y-94000000D03*
%TO.P,SW1,3,K_3*%
%TO.N,unconnected-(SW1-K-Pad3)*%
X198250000Y-81500000D03*
%TO.P,SW1,4,A_4*%
%TO.N,Net-(SW1-A)*%
X198250000Y-94000000D03*
%TD*%
D16*
%TO.P,J2,1,Pin_1_1*%
%TO.N,Net-(J2-Pin_1)*%
X175750000Y-85250000D03*
D17*
%TO.P,J2,2,Pin_2_2*%
%TO.N,GND*%
X178290000Y-85250000D03*
%TD*%
D16*
%TO.P,J4,1,Pin_1_1*%
%TO.N,Net-(J4-Pin_1)*%
X157235000Y-68115000D03*
D17*
%TO.P,J4,2,Pin_2_2*%
%TO.N,Net-(J4-Pin_2)*%
X159775000Y-68115000D03*
%TD*%
D27*
%TO.N,3.3volt*%
X155250000Y-90500000D03*
D28*
X160750000Y-65000000D03*
D27*
X159005101Y-79924340D03*
D28*
X163250000Y-57000000D03*
%TO.N,GND*%
X154750000Y-68000000D03*
X180750000Y-72250000D03*
X175500000Y-81750000D03*
X153750000Y-75500000D03*
X178000000Y-75500000D03*
X164000000Y-70000000D03*
X157576765Y-83326765D03*
X182174265Y-71075735D03*
X192750000Y-71000000D03*
%TO.N,/SD*%
X162750000Y-63250000D03*
X163750000Y-61500000D03*
%TO.N,/WS*%
X180500000Y-60000000D03*
X157500000Y-57750000D03*
X156000000Y-60750000D03*
%TO.N,/SCK*%
X155500000Y-62750000D03*
%TO.N,Net-(J4-Pin_1)*%
X158250000Y-66450000D03*
%TO.N,Net-(J4-Pin_2)*%
X159050003Y-66450000D03*
%TO.N,/INT*%
X159225735Y-72475735D03*
X181500000Y-62000000D03*
%TO.N,/USB_D+*%
X189000000Y-63250000D03*
X189000000Y-64530000D03*
%TO.N,Net-(U1-ILIM)*%
X179750000Y-71750000D03*
X183000000Y-72750000D03*
%TO.N,/DIN*%
X167750000Y-65000000D03*
X156750000Y-59250000D03*
X161700735Y-63420000D03*
%TD*%
%TO.N,3.3volt*%
D29*
X185500000Y-80750000D02*
X184250000Y-79500000D01*
X152945000Y-65000000D02*
X160750000Y-65000000D01*
X183975000Y-75750000D02*
X184350000Y-75750000D01*
X181264214Y-86400000D02*
X185500000Y-82164214D01*
X163250000Y-57000000D02*
X163400000Y-56850000D01*
X151500000Y-92500000D02*
X152750000Y-91250000D01*
X152750000Y-91250000D02*
X155250000Y-91250000D01*
X183975000Y-75750000D02*
X183975000Y-79225000D01*
X159270761Y-80190000D02*
X159005101Y-79924340D01*
X155250000Y-91250000D02*
X155250000Y-90500000D01*
X151000000Y-92500000D02*
X151500000Y-92500000D01*
X159865000Y-80190000D02*
X166075000Y-86400000D01*
X151385000Y-66560000D02*
X152945000Y-65000000D01*
X184350000Y-75750000D02*
X186250000Y-73850000D01*
X166075000Y-86400000D02*
X181264214Y-86400000D01*
X185500000Y-82164214D02*
X185500000Y-80750000D01*
X155250000Y-91250000D02*
X155250000Y-94800000D01*
X183975000Y-79225000D02*
X184250000Y-79500000D01*
X159865000Y-80190000D02*
X159270761Y-80190000D01*
X163400000Y-56850000D02*
X165500000Y-56850000D01*
%TO.N,GND*%
X185287500Y-74246814D02*
X184734314Y-74800000D01*
X188750000Y-72250000D02*
X191500000Y-72250000D01*
X193320000Y-59860000D02*
X193320000Y-60015000D01*
X178290000Y-75790000D02*
X178290000Y-85250000D01*
X178000000Y-75500000D02*
X178750000Y-75500000D01*
X184328052Y-74800000D02*
X183975000Y-74800000D01*
X165150000Y-68850000D02*
X164000000Y-70000000D01*
X165500000Y-68850000D02*
X168860000Y-68850000D01*
X179750000Y-75875000D02*
X180250000Y-75875000D01*
X180700000Y-82000000D02*
X184250000Y-82000000D01*
X180750000Y-72250000D02*
X181000000Y-72250000D01*
X192405000Y-67585000D02*
X193320000Y-68500000D01*
X153750000Y-75500000D02*
X153750000Y-79500000D01*
X153650000Y-69100000D02*
X154750000Y-68000000D01*
X168860000Y-68850000D02*
X174110000Y-63600000D01*
X165500000Y-68850000D02*
X165150000Y-68850000D01*
X187212500Y-73509448D02*
X186953052Y-73250000D01*
X175210000Y-63600000D02*
X175210000Y-64111470D01*
X188750000Y-72250000D02*
X186546948Y-72250000D01*
X186546948Y-72250000D02*
X185000000Y-73796948D01*
X187212500Y-90582500D02*
X187212500Y-73509448D01*
X180700000Y-82840000D02*
X180700000Y-82000000D01*
X199150000Y-65635406D02*
X194129594Y-60615000D01*
X172000000Y-80750000D02*
X175150000Y-80750000D01*
X151000000Y-77260000D02*
X151000000Y-76346346D01*
X185287500Y-73509448D02*
X185287500Y-74246814D01*
X155860000Y-89360000D02*
X157750000Y-91250000D01*
X151846346Y-75500000D02*
X153750000Y-75500000D01*
X186953052Y-73250000D02*
X185546948Y-73250000D01*
X199150000Y-68847056D02*
X199150000Y-65635406D01*
X179062500Y-75187500D02*
X179750000Y-75875000D01*
X190630000Y-94000000D02*
X187212500Y-90582500D01*
X175150000Y-80750000D02*
X175150000Y-81400000D01*
X192405000Y-67430000D02*
X192405000Y-67585000D01*
X185546948Y-73250000D02*
X185287500Y-73509448D01*
X185000000Y-73796948D02*
X185000000Y-74128052D01*
X181000000Y-72250000D02*
X182174265Y-71075735D01*
X175150000Y-81400000D02*
X175500000Y-81750000D01*
X151600000Y-89360000D02*
X155860000Y-89360000D01*
X151385000Y-69100000D02*
X153650000Y-69100000D01*
X188750000Y-59690000D02*
X191165000Y-59690000D01*
X193320000Y-59860000D02*
X197500000Y-59860000D01*
X151000000Y-89960000D02*
X151600000Y-89360000D01*
X157750000Y-91250000D02*
X157750000Y-94800000D01*
X178000000Y-75500000D02*
X178290000Y-75790000D01*
X178290000Y-85250000D02*
X180700000Y-82840000D01*
X151000000Y-76346346D02*
X151846346Y-75500000D01*
X178750000Y-75500000D02*
X179062500Y-75187500D01*
X180750000Y-73000000D02*
X180750000Y-72250000D01*
X191500000Y-72250000D02*
X192750000Y-71000000D01*
X184734314Y-74800000D02*
X183975000Y-74800000D01*
X193320000Y-60015000D02*
X192405000Y-60930000D01*
X194129594Y-60615000D02*
X192720000Y-60615000D01*
X192750000Y-71000000D02*
X196997056Y-71000000D01*
X153750000Y-79500000D02*
X157576765Y-83326765D01*
X175210000Y-64111470D02*
X182174265Y-71075735D01*
X196997056Y-71000000D02*
X199150000Y-68847056D01*
X185000000Y-74128052D02*
X184328052Y-74800000D01*
X191165000Y-59690000D02*
X192405000Y-60930000D01*
X192720000Y-60615000D02*
X192405000Y-60930000D01*
X193320000Y-68500000D02*
X197500000Y-68500000D01*
%TO.N,Net-(U1-IN)*%
X192640000Y-66395000D02*
X192405000Y-66630000D01*
X184000000Y-70250000D02*
X197181371Y-70250000D01*
X198750000Y-68000000D02*
X197145000Y-66395000D01*
X198750000Y-68681371D02*
X198750000Y-68000000D01*
X197181371Y-70250000D02*
X198750000Y-68681371D01*
X193129999Y-61730000D02*
X193430000Y-62030001D01*
X193430000Y-62030001D02*
X193430000Y-66215000D01*
X192405000Y-61730000D02*
X193129999Y-61730000D01*
X181250000Y-73000000D02*
X184000000Y-70250000D01*
X193250000Y-66395000D02*
X192640000Y-66395000D01*
X197145000Y-66395000D02*
X193250000Y-66395000D01*
X193430000Y-66215000D02*
X193250000Y-66395000D01*
%TO.N,Net-(U3-VIN)*%
X180700000Y-79500000D02*
X182675000Y-77525000D01*
X183975000Y-73850000D02*
X183637500Y-74187500D01*
X182389386Y-74687500D02*
X181937500Y-74687500D01*
X181937500Y-74187500D02*
X181937500Y-74687500D01*
X182675000Y-77525000D02*
X182675000Y-74973114D01*
X183637500Y-74187500D02*
X181937500Y-74187500D01*
X182675000Y-74973114D02*
X182389386Y-74687500D01*
%TO.N,/scl*%
X165200000Y-67350000D02*
X165500000Y-67350000D01*
X161015000Y-86420000D02*
X159865000Y-85270000D01*
X152540000Y-88960000D02*
X160341346Y-88960000D01*
X159865000Y-85270000D02*
X158555101Y-83960101D01*
X158555101Y-83960101D02*
X158555101Y-73994899D01*
X161015000Y-88286346D02*
X161015000Y-86420000D01*
X151000000Y-87420000D02*
X152540000Y-88960000D01*
X160341346Y-88960000D02*
X161015000Y-88286346D01*
X158555101Y-73994899D02*
X165200000Y-67350000D01*
%TO.N,/sda*%
X157305000Y-85250000D02*
X159865000Y-87810000D01*
X151000000Y-84880000D02*
X156630000Y-84880000D01*
X151000000Y-84880000D02*
X149850000Y-83730000D01*
X153800000Y-67950000D02*
X155900000Y-65850000D01*
X149850000Y-68400000D02*
X150300000Y-67950000D01*
X155900000Y-65850000D02*
X165500000Y-65850000D01*
X156630000Y-84880000D02*
X157000000Y-85250000D01*
X149850000Y-83730000D02*
X149850000Y-68400000D01*
X157000000Y-85250000D02*
X157305000Y-85250000D01*
X150300000Y-67950000D02*
X153800000Y-67950000D01*
%TO.N,Net-(J2-Pin_1)*%
X176500000Y-84500000D02*
X176500000Y-76000000D01*
X175750000Y-85250000D02*
X176500000Y-84500000D01*
X179062500Y-74687500D02*
X179062500Y-74187500D01*
X177812500Y-74687500D02*
X179062500Y-74687500D01*
X176500000Y-76000000D02*
X177812500Y-74687500D01*
%TO.N,/SD*%
X161980000Y-64020000D02*
X162750000Y-63250000D01*
X163750000Y-61500000D02*
X165350000Y-61500000D01*
X151385000Y-64020000D02*
X161980000Y-64020000D01*
X165350000Y-61500000D02*
X165500000Y-61350000D01*
%TO.N,/WS*%
X155190000Y-58940000D02*
X156000000Y-59750000D01*
X155190000Y-58940000D02*
X156380000Y-57750000D01*
X180500000Y-60000000D02*
X180650000Y-59850000D01*
X156380000Y-57750000D02*
X157500000Y-57750000D01*
X156000000Y-59750000D02*
X156000000Y-60750000D01*
X180650000Y-59850000D02*
X183000000Y-59850000D01*
X151385000Y-58940000D02*
X155190000Y-58940000D01*
%TO.N,/SCK*%
X156000000Y-56500000D02*
X160858578Y-56500000D01*
X160858578Y-56500000D02*
X164208578Y-59850000D01*
X154750000Y-55250000D02*
X156000000Y-56500000D01*
X150908654Y-55250000D02*
X154750000Y-55250000D01*
X151385000Y-61480000D02*
X150235000Y-60330000D01*
X151385000Y-61480000D02*
X152655000Y-62750000D01*
X150235000Y-55923654D02*
X150908654Y-55250000D01*
X164208578Y-59850000D02*
X165500000Y-59850000D01*
X152655000Y-62750000D02*
X155500000Y-62750000D01*
X150235000Y-60330000D02*
X150235000Y-55923654D01*
%TO.N,Net-(J4-Pin_1)*%
X157235000Y-68115000D02*
X157235000Y-67465000D01*
X157235000Y-67465000D02*
X158250000Y-66450000D01*
%TO.N,Net-(J4-Pin_2)*%
X159775000Y-67174997D02*
X159050003Y-66450000D01*
X159775000Y-68115000D02*
X159775000Y-67174997D01*
%TO.N,/INT*%
X151000000Y-74720000D02*
X156981470Y-74720000D01*
X156981470Y-74720000D02*
X159225735Y-72475735D01*
X181500000Y-62000000D02*
X182350000Y-62000000D01*
X182350000Y-62000000D02*
X183000000Y-61350000D01*
%TO.N,/USB_D-*%
X183420000Y-63930000D02*
X183000000Y-64350000D01*
X192405000Y-63930000D02*
X183420000Y-63930000D01*
%TO.N,/USB_D+*%
X187600000Y-62850000D02*
X183000000Y-62850000D01*
X189000000Y-63250000D02*
X188000000Y-63250000D01*
X189100000Y-64430000D02*
X189000000Y-64530000D01*
X192405000Y-64430000D02*
X189100000Y-64430000D01*
X188000000Y-63250000D02*
X187600000Y-62850000D01*
%TO.N,Net-(P1-CC)*%
X190630000Y-65430000D02*
X192405000Y-65430000D01*
X188750000Y-67310000D02*
X190630000Y-65430000D01*
%TO.N,Net-(U1-ILIM)*%
X182875000Y-72750000D02*
X181937500Y-73687500D01*
X175150000Y-73130000D02*
X179620000Y-73130000D01*
X183000000Y-72750000D02*
X182875000Y-72750000D01*
X179750000Y-73000000D02*
X179750000Y-71750000D01*
X179620000Y-73130000D02*
X179750000Y-73000000D01*
%TO.N,Net-(U1-TS)*%
X173000000Y-74130000D02*
X178168114Y-74130000D01*
X178168114Y-74130000D02*
X178610614Y-73687500D01*
X178610614Y-73687500D02*
X179062500Y-73687500D01*
X172000000Y-73130000D02*
X173000000Y-74130000D01*
%TO.N,Net-(SW1-A)*%
X165500000Y-64350000D02*
X165200000Y-64350000D01*
X164450000Y-62100000D02*
X166550000Y-62100000D01*
X166550000Y-62100000D02*
X168050000Y-60600000D01*
X165200000Y-64350000D02*
X164450000Y-63600000D01*
X186425786Y-60600000D02*
X188335786Y-58690000D01*
X199550000Y-92700000D02*
X198250000Y-94000000D01*
X164450000Y-63600000D02*
X164450000Y-62100000D01*
X188335786Y-58690000D02*
X197761371Y-58690000D01*
X197761371Y-58690000D02*
X199550000Y-60478629D01*
X199550000Y-60478629D02*
X199550000Y-92700000D01*
X168050000Y-60600000D02*
X186425786Y-60600000D01*
%TO.N,/DIN*%
X165850000Y-62850000D02*
X165500000Y-62850000D01*
X167750000Y-65000000D02*
X167750000Y-64750000D01*
X157530735Y-59250000D02*
X161700735Y-63420000D01*
X156750000Y-59250000D02*
X157530735Y-59250000D01*
X167750000Y-64750000D02*
X165850000Y-62850000D01*
%TD*%
M02*
