%TF.GenerationSoftware,KiCad,Pcbnew,10.0.1*%
%TF.CreationDate,2026-05-20T00:22:56+05:30*%
%TF.ProjectId,hologram,686f6c6f-6772-4616-9d2e-6b696361645f,rev?*%
%TF.SameCoordinates,Original*%
%TF.FileFunction,Soldermask,Top*%
%TF.FilePolarity,Negative*%
%FSLAX46Y46*%
G04 Gerber Fmt 4.6, Leading zero omitted, Abs format (unit mm)*
G04 Created by KiCad (PCBNEW 10.0.1) date 2026-05-20 00:22:56*
%MOMM*%
%LPD*%
G01*
G04 APERTURE LIST*
G04 Aperture macros list*
%AMRoundRect*
0 Rectangle with rounded corners*
0 $1 Rounding radius*
0 $2 $3 $4 $5 $6 $7 $8 $9 X,Y pos of 4 corners*
0 Add a 4 corners polygon primitive as box body*
4,1,4,$2,$3,$4,$5,$6,$7,$8,$9,$2,$3,0*
0 Add four circle primitives for the rounded corners*
1,1,$1+$1,$2,$3*
1,1,$1+$1,$4,$5*
1,1,$1+$1,$6,$7*
1,1,$1+$1,$8,$9*
0 Add four rect primitives between the rounded corners*
20,1,$1+$1,$2,$3,$4,$5,0*
20,1,$1+$1,$4,$5,$6,$7,0*
20,1,$1+$1,$6,$7,$8,$9,0*
20,1,$1+$1,$8,$9,$2,$3,0*%
G04 Aperture macros list end*
%ADD10C,1.400000*%
%ADD11RoundRect,0.062500X-0.375000X-0.062500X0.375000X-0.062500X0.375000X0.062500X-0.375000X0.062500X0*%
%ADD12RoundRect,0.062500X-0.062500X-0.375000X0.062500X-0.375000X0.062500X0.375000X-0.062500X0.375000X0*%
%ADD13R,1.600000X1.600000*%
%ADD14R,1.700000X1.700000*%
%ADD15C,1.700000*%
%ADD16R,1.500000X0.900000*%
%ADD17C,0.600000*%
%ADD18R,2.900000X2.900000*%
%ADD19RoundRect,0.150000X-0.512500X-0.150000X0.512500X-0.150000X0.512500X0.150000X-0.512500X0.150000X0*%
%ADD20C,0.650000*%
%ADD21RoundRect,0.150000X0.575000X-0.150000X0.575000X0.150000X-0.575000X0.150000X-0.575000X-0.150000X0*%
%ADD22RoundRect,0.075000X0.650000X-0.075000X0.650000X0.075000X-0.650000X0.075000X-0.650000X-0.075000X0*%
%ADD23O,2.100000X1.000000*%
%ADD24O,1.600000X1.000000*%
%ADD25R,1.200000X2.500000*%
G04 APERTURE END LIST*
D10*
%TO.C,R3*%
X172000000Y-73130000D03*
X172000000Y-80750000D03*
%TD*%
D11*
%TO.C,U1*%
X179062500Y-73687500D03*
X179062500Y-74187500D03*
X179062500Y-74687500D03*
X179062500Y-75187500D03*
D12*
X179750000Y-75875000D03*
X180250000Y-75875000D03*
X180750000Y-75875000D03*
X181250000Y-75875000D03*
D11*
X181937500Y-75187500D03*
X181937500Y-74687500D03*
X181937500Y-74187500D03*
X181937500Y-73687500D03*
D12*
X181250000Y-73000000D03*
X180750000Y-73000000D03*
X180250000Y-73000000D03*
X179750000Y-73000000D03*
D13*
X180500000Y-74437500D03*
%TD*%
D10*
%TO.C,C1*%
X155250000Y-91250000D03*
X157750000Y-91250000D03*
%TD*%
%TO.C,C2*%
X155250000Y-94800000D03*
X157750000Y-94800000D03*
%TD*%
%TO.C,C5*%
X184250000Y-82000000D03*
X184250000Y-79500000D03*
%TD*%
%TO.C,C4*%
X180700000Y-82000000D03*
X180700000Y-79500000D03*
%TD*%
D14*
%TO.C,J6*%
X151000000Y-92500000D03*
D15*
X151000000Y-89960000D03*
X151000000Y-87420000D03*
X151000000Y-84880000D03*
X151000000Y-82340000D03*
X151000000Y-79800000D03*
X151000000Y-77260000D03*
X151000000Y-74720000D03*
%TD*%
D10*
%TO.C,R2*%
X175150000Y-73130000D03*
X175150000Y-80750000D03*
%TD*%
%TO.C,R1*%
X188750000Y-67310000D03*
X188750000Y-59690000D03*
%TD*%
%TO.C,C3*%
X188750000Y-72250000D03*
X188750000Y-69750000D03*
%TD*%
D16*
%TO.C,U2*%
X165500000Y-56850000D03*
X165500000Y-58350000D03*
X165500000Y-59850000D03*
X165500000Y-61350000D03*
X165500000Y-62850000D03*
X165500000Y-64350000D03*
X165500000Y-65850000D03*
X165500000Y-67350000D03*
X165500000Y-68850000D03*
X183000000Y-68850000D03*
X183000000Y-67350000D03*
X183000000Y-65850000D03*
X183000000Y-64350000D03*
X183000000Y-62850000D03*
X183000000Y-61350000D03*
X183000000Y-59850000D03*
X183000000Y-58350000D03*
X183000000Y-56850000D03*
D17*
X174110000Y-62500000D03*
X174110000Y-63600000D03*
X174660000Y-61950000D03*
X174660000Y-63050000D03*
X174660000Y-64150000D03*
X175210000Y-62500000D03*
D18*
X175210000Y-63050000D03*
D17*
X175210000Y-63600000D03*
X175760000Y-61950000D03*
X175760000Y-63050000D03*
X175760000Y-64150000D03*
X176310000Y-62500000D03*
X176310000Y-63600000D03*
%TD*%
D14*
%TO.C,J3*%
X151385000Y-69100000D03*
D15*
X151385000Y-66560000D03*
X151385000Y-64020000D03*
X151385000Y-61480000D03*
X151385000Y-58940000D03*
X151385000Y-56400000D03*
%TD*%
D14*
%TO.C,J1*%
X159865000Y-80190000D03*
D15*
X159865000Y-82730000D03*
X159865000Y-85270000D03*
X159865000Y-87810000D03*
%TD*%
D19*
%TO.C,U3*%
X183975000Y-73850000D03*
X183975000Y-74800000D03*
X183975000Y-75750000D03*
X186250000Y-75750000D03*
X186250000Y-73850000D03*
%TD*%
D20*
%TO.C,P1*%
X193850000Y-67070000D03*
X193850000Y-61290000D03*
D21*
X192405000Y-67430000D03*
X192405000Y-66630000D03*
D22*
X192405000Y-65430000D03*
X192405000Y-64430000D03*
X192405000Y-63930000D03*
X192405000Y-62930000D03*
D21*
X192405000Y-61730000D03*
X192405000Y-60930000D03*
X192405000Y-60930000D03*
X192405000Y-61730000D03*
D22*
X192405000Y-62430000D03*
X192405000Y-63430000D03*
X192405000Y-64930000D03*
X192405000Y-65930000D03*
D21*
X192405000Y-66630000D03*
X192405000Y-67430000D03*
D23*
X193320000Y-68500000D03*
D24*
X197500000Y-68500000D03*
D23*
X193320000Y-59860000D03*
D24*
X197500000Y-59860000D03*
%TD*%
D25*
%TO.C,SW1*%
X190630000Y-81500000D03*
X190630000Y-94000000D03*
X198250000Y-81500000D03*
X198250000Y-94000000D03*
%TD*%
D14*
%TO.C,J2*%
X175750000Y-85250000D03*
D15*
X178290000Y-85250000D03*
%TD*%
D14*
%TO.C,J4*%
X157235000Y-68115000D03*
D15*
X159775000Y-68115000D03*
%TD*%
M02*
