M48
; DRILL file KiCad 10.0.1 date 2026-05-20T00:23:13
; FORMAT={-:-/ absolute / metric / decimal}
; #@! TF.CreationDate,2026-05-20T00:23:13+05:30
; #@! TF.GenerationSoftware,Kicad,Pcbnew,10.0.1
; #@! TF.FileFunction,Plated,1,2,PTH
FMAT,2
METRIC
; #@! TA.AperFunction,Plated,PTH,ViaDrill
T1C0.100
; #@! TA.AperFunction,Plated,PTH,ComponentDrill
T2C0.200
; #@! TA.AperFunction,Plated,PTH,ViaDrill
T3C0.300
; #@! TA.AperFunction,Plated,PTH,ComponentDrill
T4C0.600
; #@! TA.AperFunction,Plated,PTH,ComponentDrill
T5C0.700
; #@! TA.AperFunction,Plated,PTH,ComponentDrill
T6C1.000
%
G90
G05
T1
X155.25Y-90.5
X159.005Y-79.924
T2
X174.11Y-62.5
X174.11Y-63.6
X174.66Y-61.95
X174.66Y-63.05
X174.66Y-64.15
X175.21Y-62.5
X175.21Y-63.6
X175.76Y-61.95
X175.76Y-63.05
X175.76Y-64.15
X176.31Y-62.5
X176.31Y-63.6
T3
X153.75Y-75.5
X154.75Y-68.0
X155.5Y-62.75
X156.0Y-60.75
X156.75Y-59.25
X157.5Y-57.75
X157.577Y-83.327
X158.25Y-66.45
X159.05Y-66.45
X159.226Y-72.476
X160.75Y-65.0
X161.701Y-63.42
X162.75Y-63.25
X163.25Y-57.0
X163.75Y-61.5
X164.0Y-70.0
X167.75Y-65.0
X175.5Y-81.75
X178.0Y-75.5
X179.75Y-71.75
X180.5Y-60.0
X180.75Y-72.25
X181.5Y-62.0
X182.174Y-71.076
X183.0Y-72.75
X189.0Y-63.25
X189.0Y-64.53
X192.75Y-71.0
T5
X155.25Y-91.25
X155.25Y-94.8
X157.75Y-91.25
X157.75Y-94.8
X172.0Y-73.13
X172.0Y-80.75
X175.15Y-73.13
X175.15Y-80.75
X180.7Y-79.5
X180.7Y-82.0
X184.25Y-79.5
X184.25Y-82.0
X188.75Y-59.69
X188.75Y-67.31
X188.75Y-69.75
X188.75Y-72.25
T6
X151.0Y-74.72
X151.0Y-77.26
X151.0Y-79.8
X151.0Y-82.34
X151.0Y-84.88
X151.0Y-87.42
X151.0Y-89.96
X151.0Y-92.5
X151.385Y-56.4
X151.385Y-58.94
X151.385Y-61.48
X151.385Y-64.02
X151.385Y-66.56
X151.385Y-69.1
X157.235Y-68.115
X159.775Y-68.115
X159.865Y-80.19
X159.865Y-82.73
X159.865Y-85.27
X159.865Y-87.81
X175.75Y-85.25
X178.29Y-85.25
T4
G00X192.77Y-59.86
M15
G01X193.87Y-59.86
M16
G05
G00X192.77Y-68.5
M15
G01X193.87Y-68.5
M16
G05
G00X197.2Y-59.86
M15
G01X197.8Y-59.86
M16
G05
G00X197.2Y-68.5
M15
G01X197.8Y-68.5
M16
G05
M30
